<svg id="Capa_1" enable-background="new 0 0 512 512" height="512" viewBox="0 0 512 512" width="512" xmlns="http://www.w3.org/2000/svg"><g><path d="m271.247 185.026-177.43-177.429-86.317 86.317 177.426 177.426c5.04 5.04 6.882 12.511 4.588 19.26-19.349 56.924-6.107 122.48 39.747 167.576 63.657 62.606 167.005 61.465 229.328-2.469 61.705-63.3 61.212-164.637-1.48-227.328-45.03-45.03-109.994-57.96-166.483-38.81-6.795 2.303-14.307.53-19.379-4.543z" fill="#eec06b"/><path d="m187.426 274.424c1.327-6.284 3.007-12.509 5.088-18.63 2.294-6.749.453-14.219-4.588-19.26l-161.523-161.523-18.903 18.903 177.426 177.426c.949.948 1.784 1.984 2.5 3.084z" fill="#e9a52d"/><path d="m461.588 420.901c-62.324 63.934-165.671 65.075-229.328 2.469-31.34-30.822-47.435-71.202-48.313-111.851-10.104 51.519 4.989 106.998 45.313 146.657 63.657 62.606 167.005 61.465 229.328-2.469 31.489-32.302 46.77-74.51 45.864-116.432-5.848 29.814-20.128 58.303-42.864 81.626z" fill="#e9a52d"/><path d="m413.317 255.685 37.052 71.771c2.816 5.479 2.969 11.931.423 17.528l-39.538 86.693c-5.025 11.013-17.181 16.867-28.922 13.939l-95.881-24.021c-7.184-1.8-12.781-7.406-14.585-14.582l-23.85-95.307c-1.5-5.969-.172-12.314 3.602-17.174l41.79-53.819c4.393-5.657 11.473-8.543 18.574-7.563l86.238 11.856c6.472.887 12.107 4.867 15.097 10.679z" fill="#a29aa5"/><path d="m398.331 421.115-95.881-24.021c-7.184-1.8-12.781-7.406-14.585-14.582l-23.85-95.307c-.685-2.726-.774-5.529-.316-8.234l-12.082 15.559c-3.774 4.86-5.102 11.205-3.602 17.174l23.85 95.307c1.804 7.176 7.401 12.782 14.585 14.582l95.881 24.021c11.741 2.928 23.897-2.925 28.922-13.939l6.125-13.43c-5.558 3.352-12.368 4.536-19.047 2.87z" fill="#8c818f"/><path d="m346.159 394.606c13.514 10.493 16.19 29.753 6.213 43.506l-56.929-14.268c-1.123-8.123.91-16.673 6.34-23.665 10.711-13.795 30.582-16.284 44.376-5.573z" fill="#8c818f"/><path d="m357.147 410.799-53.036-13.29c-.814.838-1.594 1.725-2.328 2.669-5.43 6.992-7.463 15.543-6.34 23.665l56.929 14.268c5.919-8.159 7.384-18.256 4.775-27.312z" fill="#766d78"/><path d="m441.358 310.005 9.011 17.45c2.816 5.479 2.969 11.931.423 17.528l-12.653 27.741c-7.441.501-15.083-1.637-21.436-6.57-13.794-10.711-16.293-30.571-5.582-44.365 7.391-9.518 19.134-13.658 30.237-11.784z" fill="#8c818f"/><path d="m307.52 281.378c-7.275 9.369-5.578 22.862 3.792 30.138 9.369 7.275 22.862 5.578 30.138-3.792 7.275-9.37 5.578-22.863-3.791-30.138-9.37-7.276-22.863-5.578-30.139 3.792z" fill="#8c818f"/><g><path d="m265.944 190.329c7.152 7.152 17.533 9.583 27.092 6.341 54.581-18.504 116.344-5.418 158.771 37.012 18.346 18.345 31.848 41.123 39.045 65.87.953 3.278 3.947 5.407 7.197 5.407.693 0 1.399-.097 2.099-.301 3.978-1.156 6.264-5.318 5.106-9.296-7.9-27.165-22.714-52.161-42.84-72.288l-165.58-165.58c-2.93-2.928-7.678-2.928-10.607 0-2.929 2.93-2.929 7.678 0 10.607l116.263 116.264c-7.365-2.777-14.942-5.047-22.687-6.779-30.435-6.806-62.103-5.118-91.584 4.879-4.112 1.394-8.582.344-11.668-2.743l-177.43-177.431c-2.929-2.928-7.678-2.928-10.607 0-2.929 2.93-2.929 7.678 0 10.607z"/><path d="m511.648 331.814c-.267-4.133-3.832-7.262-7.968-7.001-4.134.267-7.268 3.834-7.001 7.968 2.815 43.574-13.025 86.471-43.459 117.691-28.756 29.499-67.439 45.987-108.923 46.424-.564.006-1.127.009-1.69.009-40.821 0-79.147-15.614-108.087-44.075-21.123-20.775-35.74-46.941-42.269-75.668-6.354-27.955-4.845-57.053 4.365-84.148 3.173-9.335.667-19.924-6.386-26.978l-56.518-56.518c-2.929-2.928-7.678-2.928-10.607 0-2.929 2.93-2.929 7.678 0 10.607l56.517 56.517c3.044 3.045 4.14 7.575 2.791 11.543-10.103 29.723-11.759 61.64-4.79 92.301 1.716 7.55 3.955 14.933 6.664 22.118l-66.96-66.96c-2.929-2.928-7.678-2.928-10.607 0-2.929 2.93-2.929 7.678 0 10.607l116.26 116.259c.076.076.159.14.236.213.271.259.519.538.786.801 31.767 31.242 73.818 48.38 118.599 48.38.615 0 1.237-.003 1.854-.01 45.503-.479 87.945-18.575 119.506-50.952 33.394-34.257 50.776-81.322 47.687-129.128z"/><path d="m103.666 197.578c1.919 0 3.839-.732 5.303-2.196 2.929-2.93 2.929-7.678 0-10.607l-96.166-96.166c-2.929-2.928-7.678-2.928-10.607 0-2.929 2.93-2.929 7.678 0 10.607l96.166 96.165c1.465 1.464 3.384 2.197 5.304 2.197z"/><path d="m264.593 408.84c2.483 9.88 10.16 17.554 20.036 20.028l95.889 24.024c2.633.656 5.28.973 7.896.973 12.526-.001 24.271-7.254 29.666-19.076l39.54-86.699c3.519-7.732 3.308-16.502-.585-24.075l-37.047-71.761c-4.102-7.974-11.857-13.461-20.744-14.678l-86.235-11.857c-9.722-1.345-19.503 2.639-25.525 10.393l-41.79 53.82c-5.148 6.63-7 15.453-4.954 23.594zm84.177 20.634-46.076-11.544c.305-4.748 2.02-9.295 5.014-13.152 8.186-10.543 23.339-12.413 33.853-4.249 9.013 7 11.748 18.979 7.209 28.945zm94.931-98.59c1.776 3.456 1.874 7.463.27 10.987l-10.612 23.268c-10.712-1.208-19.762-9.569-21.192-20.948-.805-6.391.929-12.714 4.881-17.803 4.719-6.078 11.976-9.467 19.524-9.314zm-186.158-31.753 41.79-53.819c2.39-3.077 6.079-4.851 9.922-4.851.566 0 1.138.039 1.707.117l86.243 11.857c4.049.555 7.579 3.051 9.445 6.679l22.495 43.574c-9.347 1.684-17.92 6.741-23.946 14.5-6.409 8.254-9.221 18.508-7.916 28.874 1.304 10.367 6.567 19.606 14.821 26.015 4.43 3.439 9.491 5.848 14.836 7.133l-22.508 49.352c-3.521 7.716-12.05 11.83-20.277 9.776l-20.684-5.182c5.859-15.639 1.168-33.698-12.711-44.476-17.041-13.232-41.669-10.14-54.9 6.898-4.289 5.523-6.95 11.924-7.86 18.65-4.366-1.2-7.752-4.633-8.859-9.037l-23.851-95.315c-.932-3.711-.09-7.728 2.253-10.745z"/><path d="m306.715 317.44c12.617 9.798 30.818 7.562 40.661-5.116 4.747-6.113 6.83-13.71 5.863-21.39-.966-7.681-4.865-14.524-10.98-19.272-6.112-4.747-13.711-6.832-21.39-5.863-7.681.966-14.525 4.865-19.272 10.98-4.747 6.113-6.83 13.71-5.863 21.39s4.866 14.523 10.981 19.271zm6.731-31.463c2.29-2.949 5.592-4.83 9.296-5.296.593-.075 1.186-.112 1.773-.112 3.086 0 6.067 1.017 8.545 2.94 2.949 2.29 4.83 5.592 5.296 9.296.467 3.705-.538 7.369-2.828 10.318s-5.592 4.83-9.296 5.296c-3.713.468-7.37-.539-10.318-2.828-2.949-2.29-4.83-5.592-5.296-9.296-.467-3.704.538-7.368 2.828-10.318z"/><path d="m171.228 213.457c1.464 1.464 3.384 2.196 5.303 2.196s3.839-.732 5.303-2.196c2.929-2.93 2.929-7.678 0-10.607l-11.138-11.138c-2.929-2.928-7.678-2.928-10.607 0-2.929 2.93-2.929 7.678 0 10.607z"/><path d="m160.392 129.849-11.138-11.138c-2.929-2.928-7.678-2.928-10.607 0-2.929 2.93-2.929 7.678 0 10.607l11.138 11.138c1.464 1.464 3.384 2.196 5.303 2.196s3.839-.732 5.303-2.196c2.93-2.93 2.93-7.678.001-10.607z"/><path d="m79.363 114.656c1.464 1.464 3.384 2.196 5.303 2.196s3.839-.732 5.303-2.196c2.929-2.93 2.929-7.678 0-10.607l-11.137-11.138c-2.929-2.928-7.678-2.928-10.607 0-2.929 2.93-2.929 7.678 0 10.607z"/><path d="m254.307 228.442c1.919 0 3.838-.732 5.303-2.196 2.929-2.929 2.929-7.678 0-10.607l-11.137-11.139c-2.93-2.93-7.678-2.929-10.607-.001-2.929 2.929-2.929 7.678 0 10.607l11.138 11.139c1.464 1.465 3.383 2.197 5.303 2.197z"/><path d="m279.197 132.326c1.465 1.464 3.385 2.196 5.304 2.196s3.839-.732 5.304-2.196c2.929-2.93 2.929-7.678 0-10.607l-57.196-57.195c-2.929-2.928-7.678-2.928-10.607 0-2.929 2.93-2.929 7.678 0 10.607z"/><path d="m146.756 311.924c1.919 0 3.839-.732 5.303-2.196 2.929-2.93 2.929-7.678 0-10.607l-41.42-41.419c-2.929-2.928-7.678-2.928-10.607 0-2.929 2.93-2.929 7.678 0 10.607l41.42 41.419c1.465 1.463 3.385 2.196 5.304 2.196z"/></g></g></svg>